	<svg height="112" viewBox="0 0 596 112" width="596" xmlns="http://www.w3.org/2000/svg"><path clip-rule="evenodd" d="m508 71c6.34 0 12-5.68 12-13v-5c0-7.32-5.66-13-12-13-1.714-.0256-3.416.2931-5.005.9374-1.589.6442-3.032 1.6008-4.244 2.8131-1.213 1.2123-2.169 2.6557-2.814 4.2445-.644 1.5888-.963 3.2907-.937 5.005v5c-.026 1.7143.293 3.4162.937 5.005.645 1.5888 1.601 3.0322 2.814 4.2445 1.212 1.2123 2.655 2.1689 4.244 2.8131 1.589.6443 3.291.963 5.005.9374zm-437-18v5c0 7.32 5.67 13 12 13 1.7139.0242 3.4152-.2955 5.0034-.9402s3.031-1.6014 4.243-2.8134 2.1687-2.6548 2.8134-4.243.9644-3.2895.9402-5.0034v-5c.0242-1.7139-.2955-3.4152-.9402-5.0034s-1.6014-3.031-2.8134-4.243-2.6548-2.1687-4.243-2.8134-3.2895-.9644-5.0034-.9402c-6.33 0-12 5.68-12 13zm167 18c6.33 0 12-5.68 12-13v-5c0-7.32-5.67-13-12-13-1.714-.0256-3.416.2931-5.005.9374-1.589.6442-3.032 1.6008-4.244 2.8131-1.213 1.2123-2.169 2.6557-2.814 4.2445-.644 1.5888-.963 3.2907-.937 5.005v5c-.026 1.7143.293 3.4162.937 5.005.645 1.5888 1.601 3.0322 2.814 4.2445 1.212 1.2123 2.655 2.1689 4.244 2.8131 1.589.6443 3.291.963 5.005.9374zm-238-71v112h596v-112zm577 49c9.3 1.4 18 7.42 18 18 .02 2.632-.484 5.2417-1.482 7.6772-.998 2.4356-2.47 4.6483-4.331 6.5094-1.862 1.8612-4.074 3.3336-6.51 4.3317-2.435.998-5.045 1.5017-7.677 1.4817h-12c-4.844.0393-9.597-1.3189-13.688-3.9119-4.092-2.5931-7.349-6.3109-9.382-10.7081-.209-.4608-.362-.7294-.347-1.2687.022-.7892.56-1.5041 1.317-1.7413l11.2-3.74c.539-.1681 1.119-.1489 1.645.0544.847.3269 1.098.8778 1.425 1.3156.928 1.2048 2.111 2.1886 3.465 2.8803s2.845 1.0742 4.365 1.1197h12c2.189.0336 4.033-1.834 4-4 0-2.72-3.6-3-10-3.52-3.5-.28-7.86-.63-13-1.48-9.3-1.4-18-7.3-18-18-.02-2.632.484-5.2417 1.482-7.6772.998-2.4356 2.47-4.6483 4.331-6.5094 1.862-1.8612 4.074-3.3336 6.51-4.3317 2.435-.998 5.045-1.5017 7.677-1.4817h12c4.814-.0409 9.538 1.2984 13.615 3.8593 4.076 2.5609 7.333 6.2362 9.385 10.5907.538 1.1746.628 2.6929-.89 3.2l-11.18 3.86c-1.531.4516-2.417-.7277-3.26-1.76-.935-1.1386-2.103-2.0628-3.427-2.7098-1.323-.647-2.77-1.0018-4.243-1.0402h-12c-1.053.0254-2.056.455-2.8 1.1997-.745.7447-1.175 1.7474-1.2 2.8003 0 2.72 4.19 3.06 10.68 3.58 3.52.28 7.71.62 12.32 1.42zm-55-25h12c.53 0 1.039.2107 1.414.5858s.586.8838.586 1.4142v56c-.029 7.4171-2.988 14.5222-8.233 19.767-5.245 5.245-12.35 8.204-19.767 8.233-4.91.047-9.749-1.164-14.059-3.516-4.309-2.353-7.945-5.769-10.561-9.924-.51-.83-.45-.79-.45-.79-.243-.4697-.289-1.0163-.13-1.5204s.512-.9246.98-1.1696l10.39-5.39c.387-.1827.821-.2404 1.242-.1651s.808.2798 1.108.5851c0 0 .52.55 1.18 1.29 1.29 1.456 2.877 2.6196 4.653 3.4129s3.702 1.198 5.647 1.1871c5.45 0 10.59-4.28 12-10-3.709 1.928-7.82 2.9557-12 3-3.812.0145-7.59-.7256-11.115-2.1779-3.525-1.4522-6.728-3.5878-9.424-6.2836-2.695-2.6958-4.831-5.8985-6.283-9.4235s-2.193-7.3026-2.178-11.115v-6c0-15.3 12.75-28 29-28 4.25.0087 8.411 1.2223 12 3.5v-1.5c0-.5304.211-1.0391.586-1.4142s.884-.5858 1.414-.5858zm-181 61c0 .5304-.211 1.0391-.586 1.4142s-.884.5858-1.414.5858h-9c-2.578-.0078-5.128-.5381-7.496-1.5587-2.367-1.0207-4.503-2.5107-6.279-4.3799s-3.154-4.0789-4.052-6.4957-1.297-4.9905-1.173-7.5657v-26c0-.2652-.105-.5196-.293-.7071-.187-.1875-.442-.2929-.707-.2929h-11c-.53 0-1.039-.2107-1.414-.5858s-.586-.8838-.586-1.4142v-11c0-.5304.211-1.0391.586-1.4142s.884-.5858 1.414-.5858h3c2.652 0 5.196-1.0536 7.071-2.9289 1.875-1.8754 2.929-4.4189 2.929-7.0711v-12c0-.53043.211-1.03914.586-1.41421.375-.37508.884-.58579 1.414-.58579h11c.53 0 1.039.21071 1.414.58579.375.37507.586.88378.586 1.41421v20c0 .2652.105.5196.293.7071.187.1875.442.2929.707.2929h11c.53 0 1.039.2107 1.414.5858s.586.8838.586 1.4142v12c0 .5304-.211 1.0391-.586 1.4142s-.884.5858-1.414.5858h-11c-.265 0-.52.1054-.707.2929-.188.1875-.293.4419-.293.7071v26c0 3 2.31 4 5 4h7c.53 0 1.039.2107 1.414.5858s.586.8838.586 1.4142zm-284 2c-.5304 0-1.0391-.2107-1.4142-.5858s-.5858-.8838-.5858-1.4142v-82c0-.53043.2107-1.03914.5858-1.41421.3751-.37508.8838-.58579 1.4142-.58579h12c.5304 0 1.0391.21071 1.4142.58579.3751.37507.5858.88378.5858 1.41421v24c3.7091-1.928 7.82-2.9557 12-3 3.8124-.0145 7.59.7256 11.115 2.1779 3.525 1.4522 6.728 3.5878 9.424 6.2836 2.695 2.6958 4.831 5.8985 6.283 9.4235s2.193 7.3026 2.178 11.115v6c0 15.29-12.75 28-29 28-4.2504-.0087-8.4113-1.2223-12-3.5v1.5c0 .5304-.2107 1.0391-.5858 1.4142s-.8838.5858-1.4142.5858zm209-84v82c0 .5304-.211 1.0391-.586 1.4142s-.884.5858-1.414.5858h-12c-.53 0-1.039-.2107-1.414-.5858s-.586-.8838-.586-1.4142v-1.5c-3.589 2.2777-7.75 3.4913-12 3.5-16.25 0-29-12.71-29-28v-6c-.015-3.8124.726-7.59 2.178-11.115s3.588-6.7277 6.283-9.4235c2.696-2.6958 5.899-4.8314 9.424-6.2836 3.525-1.4523 7.303-2.1924 11.115-2.1779 4.18.0443 8.291 1.072 12 3v-24c0-.53043.211-1.03914.586-1.41421.375-.37508.884-.58579 1.414-.58579h12c.53 0 1.039.21071 1.414.58579.375.37507.586.88378.586 1.41421zm-59 82c0 .5304-.211 1.0391-.586 1.4142s-.884.5858-1.414.5858h-12c-.53 0-1.039-.2107-1.414-.5858s-.586-.8838-.586-1.4142v-82c0-.53043.211-1.03914.586-1.41421.375-.37508.884-.58579 1.414-.58579h12c.53 0 1.039.21071 1.414.58579.375.37507.586.88378.586 1.41421zm-18 0c0 .5304-.211 1.0391-.586 1.4142s-.884.5858-1.414.5858h-12c-.53 0-1.039-.2107-1.414-.5858s-.586-.8838-.586-1.4142v-59c0-.5304.211-1.0391.586-1.4142s.884-.5858 1.414-.5858h12c.53 0 1.039.2107 1.414.5858s.586.8838.586 1.4142zm229 0c0 .5304-.211 1.0391-.586 1.4142s-.884.5858-1.414.5858h-12c-.53 0-1.039-.2107-1.414-.5858s-.586-.8838-.586-1.4142v-59c0-.5304.211-1.0391.586-1.4142s.884-.5858 1.414-.5858h12c.53 0 1.039.2107 1.414.5858s.586.8838.586 1.4142zm-229-65c0 .5304-.211 1.0391-.586 1.4142s-.884.5858-1.414.5858h-12c-.53 0-1.039-.2107-1.414-.5858s-.586-.8838-.586-1.4142v-17c0-.53043.211-1.03914.586-1.41421.375-.37508.884-.58579 1.414-.58579h12c.53 0 1.039.21071 1.414.58579.375.37507.586.88378.586 1.41421zm229 0c0 .5304-.211 1.0391-.586 1.4142s-.884.5858-1.414.5858h-12c-.53 0-1.039-.2107-1.414-.5858s-.586-.8838-.586-1.4142v-17c0-.53043.211-1.03914.586-1.41421.375-.37508.884-.58579 1.414-.58579h12c.53 0 1.039.21071 1.414.58579.375.37507.586.88378.586 1.41421zm-75-17c0-.53043.211-1.03914.586-1.41421.375-.37508.884-.58579 1.414-.58579h12c.53 0 1.039.21071 1.414.58579.375.37507.586.88378.586 1.41421v24.5c3.769-2.287 8.092-3.4975 12.5-3.5 16.25 0 28.5 12.77 28.5 29v32c0 .5304-.211 1.0391-.586 1.4142s-.884.5858-1.414.5858h-12c-.53 0-1.039-.2107-1.414-.5858s-.586-.8838-.586-1.4142v-32c0-7.5-5-13-12.5-13s-12.5 5.5-12.5 13v32c0 .5304-.211 1.0391-.586 1.4142s-.884.5858-1.414.5858h-12c-.53 0-1.039-.2107-1.414-.5858s-.586-.8838-.586-1.4142zm77 23c0-.5304.211-1.0391.586-1.4142s.884-.5858 1.414-.5858h12c.53 0 1.039.2107 1.414.5858s.586.8838.586 1.4142v1.5c3.769-2.287 8.092-3.4975 12.5-3.5 16.25 0 28.5 12.77 28.5 29v32c0 .5304-.211 1.0391-.586 1.4142s-.884.5858-1.414.5858h-12c-.53 0-1.039-.2107-1.414-.5858s-.586-.8838-.586-1.4142v-32c0-7.5-5-13-12.5-13s-12.5 5.5-12.5 13v32c0 .5304-.211 1.0391-.586 1.4142s-.884.5858-1.414.5858h-12c-.53 0-1.039-.2107-1.414-.5858s-.586-.8838-.586-1.4142zm-403 59c0 .5304-.2107 1.0391-.5858 1.4142s-.8838.5858-1.4142.5858h-12c-.53043 0-1.03914-.2107-1.41421-.5858-.37508-.3751-.58579-.8838-.58579-1.4142v-82c0-.53043.21071-1.03914.58579-1.41421.37507-.37508.88378-.58579 1.41421-.58579h12c.5304 0 1.0391.21071 1.4142.58579.3751.37507.5858.88378.5858 1.41421zm125.5-14c-7.5 0-12.5-5.5-12.5-13v-32c0-.5304-.211-1.0391-.586-1.4142s-.884-.5858-1.414-.5858h-12c-.53 0-1.039.2107-1.414.5858s-.586.8838-.586 1.4142v32c0 16.23 12.25 29 28.5 29s28.5-12.77 28.5-29v-32c0-.5304-.211-1.0391-.586-1.4142s-.884-.5858-1.414-.5858h-12c-.53 0-1.039.2107-1.414.5858s-.586.8838-.586 1.4142v32c0 7.5-5 13-12.5 13z" fill="hsl(0,0%,0%)" fill-rule="evenodd"/></svg>